<?xml version="1.0" encoding="UTF-8" standalone="no"?>
<!-- Created with Inkscape (http://www.inkscape.org/) -->

<svg
   xmlns:dc="http://purl.org/dc/elements/1.1/"
   xmlns:cc="http://creativecommons.org/ns#"
   xmlns:rdf="http://www.w3.org/1999/02/22-rdf-syntax-ns#"
   xmlns:svg="http://www.w3.org/2000/svg"
   xmlns="http://www.w3.org/2000/svg"
   xmlns:sodipodi="http://sodipodi.sourceforge.net/DTD/sodipodi-0.dtd"
   xmlns:inkscape="http://www.inkscape.org/namespaces/inkscape"
   id="svg2"
   version="1.1"
   inkscape:version="0.48.2 r9819"
   width="400"
   height="100.1"
   xml:space="preserve"
   sodipodi:docname="H-Ö Bygg och kakel logo.eps"><metadata
     id="metadata8"><rdf:RDF><cc:Work
         rdf:about=""><dc:format>image/svg+xml</dc:format><dc:type
           rdf:resource="http://purl.org/dc/dcmitype/StillImage" /><dc:title></dc:title></cc:Work></rdf:RDF></metadata><defs
     id="defs6"><clipPath
       clipPathUnits="userSpaceOnUse"
       id="clipPath18"><path
         d="M 0,800.797 0,0 l 1547.71,0 0,800.797 -1547.71,0 z"
         id="path20"
         inkscape:connector-curvature="0" /></clipPath></defs><sodipodi:namedview
     pagecolor="#ffffff"
     bordercolor="#666666"
     borderopacity="1"
     objecttolerance="10"
     gridtolerance="10"
     guidetolerance="10"
     inkscape:pageopacity="0"
     inkscape:pageshadow="2"
     inkscape:window-width="1394"
     inkscape:window-height="856"
     id="namedview4"
     showgrid="false"
     inkscape:zoom="1.8970085"
     inkscape:cx="202.1604"
     inkscape:cy="50.049999"
     inkscape:window-x="46"
     inkscape:window-y="0"
     inkscape:window-maximized="1"
     inkscape:current-layer="g12" /><g
     id="g10"
     inkscape:groupmode="layer"
     inkscape:label="ink_ext_XXXXXX"
     transform="matrix(1.25,0,0,-1.25,0,100.1)"><g
       id="g12"
       transform="matrix(0.1,0,0,0.1,80,0)"><rect
         style="opacity:1;fill:#000000;fill-opacity:1;fill-rule:nonzero;stroke:#ff0000;stroke-width:1.20000005000000010;stroke-miterlimit:4;stroke-opacity:0;stroke-dasharray:none"
         id="rect3035"
         width="501.31561"
         height="163.41519"
         x="-43.753098"
         y="-37.485046"
         transform="matrix(8,0,0,-8,-800,800.8)" /><g
         id="g14"><g
           id="g16"
           clip-path="url(#clipPath18)"><path
             d="m 145.195,555.754 -10.324,-0.606 0,-102.058 c 3.027,-1.215 8.508,-2.426 16.391,-2.426 35.242,0 46.773,14.574 46.773,49.805 0,34.023 -9.097,57.711 -52.84,55.285 z m 6.067,165.226 c -7.883,0 -12.153,-0.609 -16.391,-1.824 l 0,-96.582 10.324,-0.605 c 38.262,-2.438 50.41,13.965 50.41,50.418 0,32.804 -12.148,48.593 -44.343,48.593 z M 152.48,368.648 C 85.6562,368.648 35.2344,377.152 0,394.16 l 0,379.067 c 33.418,15.793 84.4453,25.507 149.434,25.507 126.961,0 180.421,-52.851 180.421,-118.457 0,-49.199 -38.871,-77.148 -67.414,-86.257 l 0,-1.211 c 35.84,-13.368 75.926,-49.211 75.926,-100.84 0,-81.399 -63.777,-123.321 -185.887,-123.321"
             style="fill:#4fbe37;fill-opacity:1;fill-rule:nonzero;stroke:none"
             id="path22"
             inkscape:connector-curvature="0" /><path
             d="m 485.859,278.594 -104.179,0 37.558,96.129 -76.465,241.011 105.528,0 16.101,-105.968 c 3.578,-24.59 4.465,-45.164 4.465,-45.164 l 0.899,0 c 0,0 1.789,20.574 6.711,45.609 l 21.453,105.523 94.355,0 -106.426,-337.14"
             style="fill:#4fbe37;fill-opacity:1;fill-rule:nonzero;stroke:none"
             id="path24"
             inkscape:connector-curvature="0" /><path
             d="m 725.945,561.633 c -2.234,0.89 -4.468,1.347 -9.383,1.347 -22.8,0 -31.738,-17.449 -31.738,-68.418 0,-47.398 8.938,-64.39 31.738,-64.39 3.575,0 6.7,0.449 9.383,1.344 l 0,130.117 z M 704.934,272.324 c -42.036,0 -82.727,8.047 -105.079,19.668 l 23.25,63.946 c 16.985,-8.497 39.793,-14.297 63.489,-14.297 29.519,0 39.351,8.496 39.351,27.269 l 0,9.844 c -6.257,-2.246 -16.531,-4.473 -36.218,-4.473 -57.684,0 -103.743,42.473 -103.743,113.574 0,84.071 45.618,132.356 137.727,132.356 41.594,0 79.59,-7.16 99.719,-18.781 l 0,-225.371 c 0,-76.45 -52.325,-103.735 -118.496,-103.735"
             style="fill:#4fbe37;fill-opacity:1;fill-rule:nonzero;stroke:none"
             id="path26"
             inkscape:connector-curvature="0" /><path
             d="m 987.48,561.633 c -2.238,0.89 -4.472,1.347 -9.382,1.347 -22.805,0 -31.75,-17.449 -31.75,-68.418 0,-47.398 8.945,-64.39 31.75,-64.39 3.574,0 6.699,0.449 9.382,1.344 l 0,130.117 z M 966.465,272.324 c -42.031,0 -82.727,8.047 -105.078,19.668 l 23.242,63.946 c 17.004,-8.497 39.805,-14.297 63.496,-14.297 29.52,0 39.355,8.496 39.355,27.269 l 0,9.844 c -6.257,-2.246 -16.542,-4.473 -36.23,-4.473 -57.676,0 -103.73,42.473 -103.73,113.574 0,84.071 45.617,132.356 137.722,132.356 41.598,0 79.588,-7.16 99.718,-18.781 l 0,-225.371 c 0,-76.45 -52.32,-103.735 -118.495,-103.735"
             style="fill:#4fbe37;fill-opacity:1;fill-rule:nonzero;stroke:none"
             id="path28"
             inkscape:connector-curvature="0" /><path
             d="m 163.848,3.4375 -54.16,152.1485 -0.918,0 0,-152.1485 -108.77,0 0,321.1135 108.77,0 0,-140.957 0.918,0 57.878,140.957 109.68,0 -71.863,-146.094 78.863,-175.0195 -120.398,0"
             style="fill:#7b7979;fill-opacity:1;fill-rule:nonzero;stroke:none"
             id="path30"
             inkscape:connector-curvature="0" /><path
             d="m 387.012,93.0859 c -17.891,-0.6836 -32.305,-5.8398 -32.305,-27.8125 0,-16.1523 8.914,-23.3593 23.691,-23.3593 4.129,0 6.536,0 8.614,1.0351 l 0,50.1367 z M 375.312,0 c -58.75,0 -91.718,18.8867 -91.718,61.8359 0,47.0701 49.109,60.1171 103.418,64.9221 l 0,5.508 c 0,10.293 -8.614,13.398 -24.063,13.398 -18.215,0 -38.457,-5.508 -52.226,-11.348 l -15.801,42.93 c 15.476,5.84 42.949,14.785 83.137,14.785 49.121,0 80.742,-20.273 80.742,-75.234 l 0,-102.3634 C 441.965,5.83984 413.113,0 375.312,0"
             style="fill:#7b7979;fill-opacity:1;fill-rule:nonzero;stroke:none"
             id="path32"
             inkscape:connector-curvature="0" /><path
             d="m 599.602,3.4375 -36.067,91.3867 -0.703,0 0,-91.3867 -76.934,0 0,249.8825 76.934,0 0,-142.363 0.352,0 38.144,77.637 75.559,0 -45.676,-79.375 53.926,-105.7815 -85.535,0"
             style="fill:#7b7979;fill-opacity:1;fill-rule:nonzero;stroke:none"
             id="path34"
             inkscape:connector-curvature="0" /><path
             d="m 768.906,148.398 c -16.472,0 -24.035,-16.132 -21.277,-42.597 l 40.191,6.523 c 0,23.36 -5.508,36.074 -18.914,36.074 z M 753.105,70.4297 c 4.485,-12.7149 12.383,-18.9063 33,-18.9063 22.301,0 39.852,4.4727 50.497,9.2774 L 853.086,14.4336 C 835.227,6.19141 813.23,0 775.793,0 c -64.594,0 -95.852,44.3164 -95.852,96.543 0,53.223 29.539,95.488 92.403,95.488 62.883,0 90.344,-43.965 86.23,-107.1872 L 753.105,70.4297"
             style="fill:#7b7979;fill-opacity:1;fill-rule:nonzero;stroke:none"
             id="path36"
             inkscape:connector-curvature="0" /><path
             d="m 878.809,3.4375 76.9531,0 0,249.883 -76.9531,0 0,-249.883 z"
             style="fill:#7b7979;fill-opacity:1;fill-rule:nonzero;stroke:none"
             id="path38"
             inkscape:connector-curvature="0" /><path
             d="m 1133.44,150.977 c -3.27,15.605 -4.33,30.488 -4.33,30.488 l -0.75,0 c 0,0 -1.07,-14.512 -5.07,-30.137 l -17.07,-68.2225 42.12,0 -14.9,67.8715 z m 32.31,-147.34419 -6.89,32.30469 -63.89,0 -8,-32.30469 -74.36,0 77.63,249.68719 84.58,0 77.66,-249.68719 -86.73,0"
             style="fill:#7b7979;fill-opacity:1;fill-rule:nonzero;stroke:none"
             id="path40"
             inkscape:connector-curvature="0" /><path
             d="m 1356.23,111.777 -6.17,-0.351 0,-60.9768 c 1.83,-0.7422 5.09,-1.4648 9.82,-1.4648 21.06,0 27.93,8.7109 27.93,29.7656 0,20.3125 -5.45,34.473 -31.58,33.027 z m 3.65,98.711 c -4.73,0 -7.27,-0.371 -9.82,-1.074 l 0,-57.715 6.17,-0.371 c 22.89,-1.445 30.14,8.34 30.14,30.137 0,19.59 -7.25,29.023 -26.49,29.023 z M 1360.6,0 c -39.92,0 -70.04,5.07812 -91.09,15.2344 l 0,226.4646 c 19.94,9.434 50.44,15.254 89.28,15.254 75.85,0 107.77,-31.582 107.77,-70.781 0,-29.395 -23.21,-46.094 -40.26,-51.524 l 0,-0.722 c 21.4,-7.988 45.34,-29.414 45.34,-60.2541 C 1471.64,25.0391 1433.54,0 1360.6,0"
             style="fill:#7b7979;fill-opacity:1;fill-rule:nonzero;stroke:none"
             id="path42"
             inkscape:connector-curvature="0" /><path
             d="m 435.559,651.508 -21.329,0 10.848,51.804 -35.969,0 -10.847,-51.804 -21.153,0 23.661,114.605 21.164,0 -10,-48.808 35.964,0 10,48.808 21.332,0 -23.671,-114.605"
             style="fill:#ffffff;fill-opacity:1;fill-rule:nonzero;stroke:none"
             id="path44"
             inkscape:connector-curvature="0" /><path
             d="m 517.473,733.629 c -0.676,7.82 -0.508,13.828 -0.508,13.828 l -0.344,0 c 0,0 -1.836,-6.008 -5.82,-13.828 l -20.508,-40.309 30.488,0 -3.308,40.309 z m 6.472,-82.121 -2.656,29.484 -36.973,0 -15.156,-29.484 -20.176,0 61.653,114.605 20.301,0 14.167,-114.605 -21.16,0"
             style="fill:#ffffff;fill-opacity:1;fill-rule:nonzero;stroke:none"
             id="path46"
             inkscape:connector-curvature="0" /><path
             d="m 672.645,651.508 -19.469,0 8.472,76.461 c 0.84,7.152 2.012,13.828 2.012,13.828 l -0.34,0 c 0,0 -2.16,-6.676 -5.84,-13.828 l -37.968,-76.461 -11.817,0 -6.007,76.617 c -0.497,6.996 -0.497,13.672 -0.497,13.672 l -0.324,0 c 0,0 -1.16,-6.504 -3.328,-13.672 l -23.152,-76.617 -18.34,0 36.648,114.605 21.328,0 5.332,-74.465 c 0.5,-7.003 0.352,-12.488 0.352,-12.488 l 0.305,0 c 0,0 1.676,5.485 5.156,12.488 l 36.988,74.465 21.34,0 -10.851,-114.605"
             style="fill:#ffffff;fill-opacity:1;fill-rule:nonzero;stroke:none"
             id="path48"
             inkscape:connector-curvature="0" /><path
             d="m 804.844,651.508 -19.492,0 8.496,76.461 c 0.832,7.152 2.004,13.828 2.004,13.828 l -0.325,0 c 0,0 -2.168,-6.676 -5.82,-13.828 l -37.996,-76.461 -11.84,0 -5.992,76.617 c -0.481,6.996 -0.481,13.672 -0.481,13.672 l -0.351,0 c 0,0 -1.16,-6.504 -3.328,-13.672 l -23.149,-76.617 -18.347,0 36.648,114.605 21.34,0 5.344,-74.465 c 0.488,-7.003 0.32,-12.488 0.32,-12.488 l 0.344,0 c 0,0 1.648,5.485 5.152,12.488 l 36.984,74.465 21.329,0 -10.84,-114.605"
             style="fill:#ffffff;fill-opacity:1;fill-rule:nonzero;stroke:none"
             id="path50"
             inkscape:connector-curvature="0" /><path
             d="m 884.59,733.629 c -0.664,7.82 -0.508,13.828 -0.508,13.828 l -0.344,0 c 0,0 -1.804,-6.008 -5.816,-13.828 l -20.488,-40.309 30.488,0 -3.332,40.309 z m 6.484,-82.121 -2.656,29.484 -37,0 -15.148,-29.484 -20.137,0 61.621,114.605 20.312,0 14.161,-114.605 -21.153,0"
             style="fill:#ffffff;fill-opacity:1;fill-rule:nonzero;stroke:none"
             id="path52"
             inkscape:connector-curvature="0" /><path
             d="m 978.457,755.621 c -4.641,0 -7.988,-0.664 -11.152,-2.004 l -9.153,-44.484 c 1.321,-0.485 4.485,-0.828 7.825,-0.828 9.648,0 17.492,3.172 22.8,9.336 5.161,5.82 7.668,14.824 7.668,22.652 0,10.316 -5.984,15.328 -17.988,15.328 z m 28.483,-40.812 c -7.311,-7.832 -17.643,-12.325 -28.307,-12.832 l 0,-0.325 23.817,-50.144 -22.821,0 -22.168,52.472 -0.313,0 -11.015,-52.472 -20.813,0 22.844,109.762 c 8.828,4.015 19.797,6.503 32.637,6.503 23.989,0 36.489,-10.66 36.489,-27.148 0,-9.492 -3.84,-18.992 -10.35,-25.816"
             style="fill:#ffffff;fill-opacity:1;fill-rule:nonzero;stroke:none"
             id="path54"
             inkscape:connector-curvature="0" /><path
             d="m 1099.47,776.438 c -4.51,0 -7.84,2.992 -7.84,6.996 0,5.504 5.49,10.492 11.32,10.492 4.51,0 7.84,-3.168 7.84,-7.156 0,-5.172 -5.16,-10.332 -11.32,-10.332 z m -30.16,0 c -4.49,0 -7.67,2.992 -7.67,6.996 0,5.504 5.34,10.492 11.16,10.492 4.49,0 7.83,-3.168 7.83,-7.156 0,-5.172 -5.14,-10.332 -11.32,-10.332 z m 11.32,-22.649 c -9.82,0 -16.98,-7.496 -22.49,-17.672 -6.64,-12.308 -12.32,-35.633 -12.32,-50.125 0,-11.66 3.51,-20.5 15.18,-20.5 10.3,0 17.47,7.672 22.64,18.168 6.15,12.488 11.64,35.805 11.64,49.637 0,11.492 -3.48,20.492 -14.65,20.492 z m 17.67,-83.285 c -9.17,-12.672 -21.99,-20.656 -39.33,-20.656 -23.47,0 -33.97,15.816 -33.97,38.968 0,18.836 6.83,43.149 17.83,58.133 9.31,12.66 22.67,20.824 39.46,20.824 24.01,0 33.67,-16.152 33.67,-38.476 0,-18.824 -6.83,-43.809 -17.66,-58.793"
             style="fill:#ffffff;fill-opacity:1;fill-rule:nonzero;stroke:none"
             id="path56"
             inkscape:connector-curvature="0" /><path
             d="m 1375.03,566.93 c -113.12,-25.192 -164.39,-55.414 -164.39,-126.649 0,-58.293 33.93,-92.84 107.09,-92.84 25.63,0 43.73,2.891 57.3,8.653 l 0,210.836 z m 89.75,16.547 0,-263.379 c -28.68,-17.266 -79.95,-28.789 -151.58,-28.789 -123.68,0 -201.33,51.816 -201.33,143.929 0,73.407 55.03,120.172 125.17,141.047 l 0,1.434 c -58.82,18.711 -92,55.406 -92,107.222 0,66.926 58.07,115.856 150.06,115.856 49.76,0 93.51,-12.953 117.63,-27.344 l -27.14,-51.094 c -16.58,9.36 -42.23,17.993 -71.64,17.993 -52.8,0 -76.91,-24.469 -76.91,-63.329 0,-42.453 38.46,-67.644 87.46,-67.644 62.61,0 135.73,25.91 196.07,56.133 l 27.14,-53.969 c -19.58,-8.633 -55.8,-21.586 -82.93,-28.066"
             style="fill:#4fbe37;fill-opacity:1;fill-rule:nonzero;stroke:none"
             id="path58"
             inkscape:connector-curvature="0" /></g></g></g></g></svg>